<?xml version="1.0" encoding="UTF-8"?>
<svg version="1.1" viewBox="0 0 2048 666" width="615" height="200" xmlns="http://www.w3.org/2000/svg">
<path transform="translate(826,62)" d="m0 0 27 1 13 1 27 5 15 4 19 6 25 11 18 10 17 12 10 8 10 9 8 7 7 7 9 11 13 17 10 16 8 16 10 24 7 24 3 12 3 26 1 8v41l-2 21-4 24-7 23-8 21-10 21-14 22-10 13-10 11-7 8-15 13-12 10-15 10-15 9-21 10-25 9-25 6-25 4-26 2h-10l-6-1-17-1-8-1-12-2-23-5-24-8-20-9-16-9-19-13-16-13-25-25-13-17-12-19-11-21-9-24-6-20-5-25-3-28v-32l6-40 5-25 7-20 8-18 6-10 6-11 9-14 11-14 3-4h2l2-4 19-19 11-9 15-11 15-9 17-9 25-10 16-5 19-4 24-3zm-1 82-25 3-21 6-15 6-15 8-14 10-14 12-11 13-8 11-9 16-9 23-5 18-4 28-1 12v16l3 27 5 24 7 20 10 21 11 16 11 12 11 11 15 11 18 10 15 6 18 5 12 2 28 2 10-1 4-1h8l18-4 17-5 19-9 16-11 16-14 9-10 11-14 14-27 8-24 4-20 1-13v-47l-3-24-6-21-11-25-8-13-7-9-16-17-12-10-15-10-16-8-26-8-25-4z"/>
<path transform="translate(1594,71)" d="m0 0h105l26 4 34 7 36 12 17 8 20 11 19 12 14 11 8 7 20 20 10 13 12 19 12 23 8 20 7 24 4 22 2 22v25l-2 24-5 25-6 20-5 12-11 24-12 19-14 18-9 9-7 8-11 10-20 15-18 11-17 9-21 9-30 10-22 5-21 4-25 3-22 1-118 1h-48l-1-153 1-245 3-18 4-15 8-16 6-9 11-12 8-8 15-10 15-6 9-3zm22 79-12 2-5 5-2 3v326l89-1 21-2 10-2 16-2 20-7 20-8 16-10 9-7 8-7 6-5 8-10 7-8 11-18 9-21 5-15 3-16 2-14v-30l-1-4-1-13-7-28-5-13-13-23-10-13-6-7h-2l-2-4-4-2-1-3-8-7-12-8-11-7-24-10-19-5-30-5-14-1z"/>
<path transform="translate(317,64)" d="m0 0h37l2 1 14 1 6 1 10 1 22 4 29 9 23 10 17 8 19 12 13 9 13 10-2 4-12 14-8 10-10 12-9 11-8 9-4 6h-2l-5-6-13-10-17-11-16-8-21-8-14-4-11-2-18-2h-25l-3 1-13 1-14 3-24 8-16 8-12 7-13 11-11 10-13 17-7 11-8 16-8 20-4 18-3 24v35l3 23 4 18 6 18 11 23 10 14 11 13 11 11 17 13 16 8 15 6 17 4 12 2 32 1 27-1 12-2 17-4 25-9 15-8 5-8v-89l-5-7-2-1-100-1v-63l46-1h79l38 1h15l4-1 16 2v204l-14 12-16 11-17 10-15 8-28 11-22 7-21 5-17 3-32 2h-19l-40-2-29-6-30-10-23-10-21-13-11-8-11-9-10-9-8-8-18-22-11-17-14-27-8-20-7-22-3-12-4-26-1-19-1-4v-14l1-3 1-22 5-28 5-19 5-15 8-20 12-23 13-19 7-9 11-13 17-17 17-13 14-10 16-9 21-10 27-9 7-2 13-2 8-2 24-2z"/>
<path transform="translate(1232,70)" d="m0 0 4 1 1 404 3 6 7 3 7 1 194 1 1 1v79l-1 1h-303l-1-3 1-394 4-23 5-16 5-12 6-9 12-14 12-10 14-8 14-5z"/>
</svg>
